<svg width="85" height="60" viewBox="0 0 85 60" fill="none" xmlns="http://www.w3.org/2000/svg">
<path d="M60 30C37.5 30 30 37.5 30 60C30 37.5 20 30 0 30C19.5 30 30 16.5 30 0C30 17 37.5 30 60 30Z" fill="#B3B3B3"/>
<path d="M45.5227 21L42.3409 9.36364H43.7727L46.2045 18.8409H46.3182L48.7955 9.36364H50.3864L52.8636 18.8409H52.9773L55.4091 9.36364H56.8409L53.6591 21H52.2045L49.6364 11.7273H49.5455L46.9773 21H45.5227ZM61.2614 21.1818C60.4205 21.1818 59.6951 20.9962 59.0852 20.625C58.4792 20.25 58.0114 19.7273 57.6818 19.0568C57.3561 18.3826 57.1932 17.5985 57.1932 16.7045C57.1932 15.8106 57.3561 15.0227 57.6818 14.3409C58.0114 13.6553 58.4697 13.1212 59.0568 12.7386C59.6477 12.3523 60.3371 12.1591 61.125 12.1591C61.5795 12.1591 62.0284 12.2348 62.4716 12.3864C62.9148 12.5379 63.3182 12.7841 63.6818 13.125C64.0455 13.4621 64.3352 13.9091 64.5511 14.4659C64.767 15.0227 64.875 15.7083 64.875 16.5227V17.0909H58.1477V15.9318H63.5114C63.5114 15.4394 63.4129 15 63.2159 14.6136C63.0227 14.2273 62.7462 13.9223 62.3864 13.6989C62.0303 13.4754 61.6098 13.3636 61.125 13.3636C60.5909 13.3636 60.1288 13.4962 59.7386 13.7614C59.3523 14.0227 59.0549 14.3636 58.8466 14.7841C58.6383 15.2045 58.5341 15.6553 58.5341 16.1364V16.9091C58.5341 17.5682 58.6477 18.1269 58.875 18.5852C59.1061 19.0398 59.4261 19.3864 59.8352 19.625C60.2443 19.8598 60.7197 19.9773 61.2614 19.9773C61.6136 19.9773 61.9318 19.928 62.2159 19.8295C62.5038 19.7273 62.7519 19.5758 62.9602 19.375C63.1686 19.1705 63.3295 18.9167 63.4432 18.6136L64.7386 18.9773C64.6023 19.4167 64.3731 19.803 64.0511 20.1364C63.7292 20.4659 63.3314 20.7235 62.858 20.9091C62.3845 21.0909 61.8523 21.1818 61.2614 21.1818ZM67.0966 21V9.36364H68.4375V13.6591H68.5511C68.6496 13.5076 68.786 13.3144 68.9602 13.0795C69.1383 12.8409 69.392 12.6288 69.7216 12.4432C70.0549 12.2538 70.5057 12.1591 71.0739 12.1591C71.8087 12.1591 72.4564 12.3428 73.017 12.7102C73.5777 13.0777 74.0152 13.5985 74.3295 14.2727C74.6439 14.947 74.8011 15.7424 74.8011 16.6591C74.8011 17.5833 74.6439 18.3845 74.3295 19.0625C74.0152 19.7367 73.5795 20.2595 73.0227 20.6307C72.4659 20.9981 71.8239 21.1818 71.0966 21.1818C70.536 21.1818 70.0871 21.089 69.75 20.9034C69.4129 20.714 69.1534 20.5 68.9716 20.2614C68.7898 20.0189 68.6496 19.8182 68.5511 19.6591H68.392V21H67.0966ZM68.4148 16.6364C68.4148 17.2955 68.5114 17.8769 68.7045 18.3807C68.8977 18.8807 69.1799 19.2727 69.5511 19.5568C69.9223 19.8371 70.3769 19.9773 70.9148 19.9773C71.4754 19.9773 71.9432 19.8295 72.3182 19.5341C72.697 19.2348 72.9811 18.8333 73.1705 18.3295C73.3636 17.822 73.4602 17.2576 73.4602 16.6364C73.4602 16.0227 73.3655 15.4697 73.1761 14.9773C72.9905 14.4811 72.7083 14.089 72.3295 13.8011C71.9545 13.5095 71.483 13.3636 70.9148 13.3636C70.3693 13.3636 69.911 13.5019 69.5398 13.7784C69.1686 14.0511 68.8883 14.4337 68.6989 14.9261C68.5095 15.4148 68.4148 15.9848 68.4148 16.6364ZM80.7614 21.1591C80.0114 21.1591 79.3428 21.0303 78.7557 20.7727C78.1723 20.5152 77.7083 20.1572 77.3636 19.6989C77.0227 19.2367 76.8371 18.7008 76.8068 18.0909H78.2386C78.2689 18.4659 78.3977 18.7898 78.625 19.0625C78.8523 19.3314 79.1496 19.5398 79.517 19.6875C79.8845 19.8352 80.2917 19.9091 80.7386 19.9091C81.2386 19.9091 81.6818 19.822 82.0682 19.6477C82.4545 19.4735 82.7576 19.2311 82.9773 18.9205C83.197 18.6098 83.3068 18.25 83.3068 17.8409C83.3068 17.4129 83.2008 17.036 82.9886 16.7102C82.7765 16.3807 82.4659 16.1231 82.0568 15.9375C81.6477 15.7519 81.1477 15.6591 80.5568 15.6591H79.625V14.4091H80.5568C81.0189 14.4091 81.4242 14.3258 81.7727 14.1591C82.125 13.9924 82.3996 13.7576 82.5966 13.4545C82.7973 13.1515 82.8977 12.7955 82.8977 12.3864C82.8977 11.9924 82.8106 11.6496 82.6364 11.358C82.4621 11.0663 82.2159 10.839 81.8977 10.6761C81.5833 10.5133 81.2121 10.4318 80.7841 10.4318C80.3826 10.4318 80.0038 10.5057 79.6477 10.6534C79.2955 10.7973 79.0076 11.0076 78.7841 11.2841C78.5606 11.5568 78.4394 11.8864 78.4205 12.2727H77.0568C77.0795 11.6629 77.2633 11.1288 77.608 10.6705C77.9527 10.2083 78.4034 9.84848 78.9602 9.59091C79.5208 9.33333 80.1364 9.20455 80.8068 9.20455C81.5265 9.20455 82.1439 9.35038 82.6591 9.64205C83.1742 9.92992 83.5701 10.3106 83.8466 10.7841C84.1231 11.2576 84.2614 11.7689 84.2614 12.3182C84.2614 12.9735 84.089 13.5322 83.7443 13.9943C83.4034 14.4564 82.9394 14.7765 82.3523 14.9545V15.0455C83.0871 15.1667 83.661 15.4792 84.0739 15.983C84.4867 16.483 84.6932 17.1023 84.6932 17.8409C84.6932 18.4735 84.5208 19.0417 84.1761 19.5455C83.8352 20.0455 83.3693 20.4394 82.7784 20.7273C82.1875 21.0152 81.5152 21.1591 80.7614 21.1591Z" fill="#757575"/>
</svg>
